<?xml version="1.0" encoding="UTF-8"?>
<svg id="Capa_1" xmlns="http://www.w3.org/2000/svg" xmlns:xlink="http://www.w3.org/1999/xlink" version="1.1" viewBox="0 0 4492 2169">
  <!-- Generator: Adobe Illustrator 29.3.0, SVG Export Plug-In . SVG Version: 2.1.0 Build 146)  -->
  <defs>
    <style>
      .st0 {
        fill: none;
      }

      .st1 {
        fill: #fff;
      }

      .st2 {
        fill: url(#Degradado_sin_nombre);
      }

      .st3 {
        clip-path: url(#clippath);
      }
    </style>
    <clipPath id="clippath">
      <rect class="st0" y="0" width="4492" height="2169"/>
    </clipPath>
    <linearGradient id="Degradado_sin_nombre" data-name="Degradado sin nombre" x1="1610.7" y1="1328.3" x2="4164.1" y2="1328.3" gradientTransform="translate(0 2167.1) scale(1 -1)" gradientUnits="userSpaceOnUse">
      <stop offset="0" stop-color="#ad9873"/>
      <stop offset="1" stop-color="#e8d69c"/>
    </linearGradient>
  </defs>
  <g class="st3">
    <g>
      <path class="st1" d="M0,1619.1h198.7v52.2H57.4v55.5h124.5v52.2H57.4v101H0v-260.8Z"/>
      <path class="st1" d="M274.3,1619.1h119.3c33.2,0,58.5,8.9,76,26.5,14.9,14.9,22.3,34.7,22.3,59.6v.8c0,42.1-22.7,68.6-55.9,80.9l63.8,93.1h-67.1l-55.9-83.4h-45.1v83.4h-57.4v-260.8h0ZM389.9,1745.8c28.3,0,44-14.5,44-36.9v-.8c0-25-16.8-37.3-45.1-37.3h-57.1v74.9h58.2Z"/>
      <path class="st1" d="M562,1750.3v-.8c0-74.2,58.5-134.9,139-134.9s138.3,60,138.3,134.2v.8c0,74.2-58.5,134.9-139,134.9s-138.3-60-138.3-134.1ZM779.3,1750.3v-.8c0-44.7-32.8-82-79-82s-78.3,36.5-78.3,81.2v.8c0,44.7,32.8,82,79,82s78.3-36.5,78.3-81.2Z"/>
      <path class="st1" d="M920.2,1619.1h61.9l68.6,110.3,68.6-110.3h61.9v260.8h-57.1v-170.3l-73.4,111.4h-1.5l-72.7-110.3v169.2h-56.3v-260.8h0Z"/>
      <path class="st1" d="M1255.7,1842l33.9-40.6c23.8,19.4,48.1,31.7,77.9,31.7s37.7-9.3,37.7-24.6v-.8c0-14.5-9-22.3-52.6-33.1-52.9-13.1-86.5-28.3-86.5-79.7v-.8c0-47.3,37.7-78.6,91.3-78.6s70.1,11.9,96.9,33.1l-29.8,43.2c-23.5-16-45.5-25.7-67.8-25.7s-33.5,9.7-33.5,22.7v.7c0,17.5,11.2,22.3,56.3,34.3,52.9,14.1,82.8,32.8,82.8,78.2v.8c0,51.8-39.5,80.9-95.8,80.9s-79.4-13.4-110.7-41.7h0Z"/>
      <path class="st1" d="M1541.9,1619.1h57.4v114l105.1-114h70.5l-106.6,110.7,111.1,150.2h-68.9l-80.9-111-30.2,31.3v79.8h-57.4v-260.8h0Z"/>
      <path class="st1" d="M1906.1,1777.1l-100.3-158h67.1l62.2,104.7,63.4-104.7h65.2l-100.3,156.9v104h-57.4v-102.8Z"/>
      <path class="st1" d="M2271,1619.1h119.2c33.2,0,58.5,8.9,76,26.5,14.9,14.9,22.4,34.7,22.4,59.6v.8c0,42.1-22.7,68.6-55.9,80.9l63.8,93.1h-67.1l-55.9-83.4h-45.1v83.4h-57.4v-260.8h0ZM2386.5,1745.8c28.3,0,44-14.5,44-36.9v-.8c0-25-16.8-37.3-45.1-37.3h-57v74.9h58.2Z"/>
      <path class="st1" d="M2570.3,1619.1h196.8v51h-139.8v52.9h123v51h-123v54.8h141.6v51h-198.7v-260.8Z"/>
      <path class="st1" d="M2939.2,1617.3h52.9l111.8,262.7h-60l-23.8-58.5h-110.3l-23.8,58.5h-58.5l111.8-262.7h0ZM2999.6,1770.8l-34.7-84.6-34.7,84.6h69.3Z"/>
      <path class="st1" d="M3174.1,1619.1h57.4v208.7h130.1v52.2h-187.5v-260.8Z"/>
      <path class="st1" d="M3458.1,1672h-79.4v-52.9h216.2v52.9h-79.4v207.9h-57.4v-207.9h0Z"/>
      <path class="st1" d="M3645.9,1750.3v-.8c0-74.2,58.5-134.9,139-134.9s138.3,60,138.3,134.2v.8c0,74.2-58.5,134.9-139,134.9s-138.3-60-138.3-134.1ZM3863.2,1750.3v-.8c0-44.7-32.8-82-79-82s-78.3,36.5-78.3,81.2v.8c0,44.7,32.8,82,79,82s78.3-36.5,78.3-81.2Z"/>
      <path class="st1" d="M4004.1,1619.1h119.3c33.2,0,58.5,8.9,76,26.5,14.9,14.9,22.3,34.7,22.3,59.6v.8c0,42.1-22.7,68.6-55.9,80.9l63.8,93.1h-67.1l-55.9-83.4h-45.1v83.4h-57.4v-260.8h0ZM4119.7,1745.8c28.3,0,44-14.5,44-36.9v-.8c0-25-16.8-37.3-45.1-37.3h-57.1v74.9h58.2Z"/>
      <path class="st1" d="M4285.5,1842l33.9-40.6c23.8,19.4,48.1,31.7,77.9,31.7s37.7-9.3,37.7-24.6v-.8c0-14.5-9-22.3-52.6-33.1-52.9-13.1-86.5-28.3-86.5-79.7v-.8c0-47.3,37.7-78.6,91.3-78.6s70.1,11.9,96.9,33.1l-29.8,43.2c-23.5-16-45.5-25.7-67.8-25.7s-33.5,9.7-33.5,22.7v.7c0,17.5,11.2,22.3,56.3,34.3,52.9,14.1,82.8,32.8,82.8,78.2v.8c0,51.8-39.5,80.9-95.8,80.9s-79.4-13.4-110.7-41.7h0Z"/>
      <path class="st1" d="M2715.7,743.8s193.2,387.7,361.4,550.9c168.2,163.1,376.3,118.5,376.3,118.5-4.6.8-14.6-4.9-19.1-6.5-116.2-42.1-202.1-135-274.6-231.6-180.6-240.5-292.7-523.5-453.1-776.7-64.1-101.1-134.5-199.1-219.6-283.4-35.4-35-73.7-67.9-118.4-90-36.6-18-73.4-26.2-112.8-24.9h0C2255.7,0,1552,0,1552,0v.3c-31.9,1.6-62.3,9.7-92.6,24.7-44.6,22-83,54.9-118.4,90-85.1,84.3-155.5,182.2-219.6,283.4-160.4,253.2-272.6,536.2-453.1,776.7-72.6,96.6-158.5,189.5-274.6,231.6-4.4,1.6-14.5,7.2-19.1,6.5,0,0,208.1,44.7,376.3-118.5,168.2-163.1,361.4-550.9,361.4-550.9,0,0,335.1-674.8,538.1-708.2,11.1,1.8,22.5,5.5,34.3,11-29.4,19.6-56.1,43.5-81.3,68.4-85.1,84.3-155.5,182.2-219.6,283.4-160.4,253.2-272.6,536.2-453.1,776.7-72.6,96.6-158.5,189.5-274.6,231.6-4.4,1.6-14.5,7.2-19.1,6.5,0,0,208.1,44.7,376.3-118.5,168.2-163.1,361.4-550.9,361.4-550.9,0,0,216.5-436,406.9-624.4,13.5,13.3,27.1,28,40.8,43.5-65.2,72.6-121.7,152.9-174,235.4-160.4,253.2-272.6,536.2-453.1,776.7-72.5,96.6-158.5,189.5-274.6,231.6-4.4,1.6-14.5,7.2-19.1,6.5,0,0,208.1,44.7,376.3-118.5,168.2-163.1,361.4-550.9,361.4-550.9,0,0,128.5-258.8,274.6-463.8,146.1,205,274.6,463.8,274.6,463.8,0,0,193.2,387.7,361.4,550.9,168.2,163.1,376.3,118.5,376.3,118.5-4.6.8-14.6-4.9-19.1-6.5-116.2-42.1-202.1-135-274.6-231.6-180.6-240.5-292.7-523.5-453.1-776.7-52.3-82.5-108.8-162.9-174-235.4,13.7-15.6,27.3-30.2,40.8-43.5,190.4,188.5,406.9,624.4,406.9,624.4,0,0,193.2,387.7,361.4,550.9,168.2,163.1,376.3,118.5,376.3,118.5-4.6.8-14.6-4.9-19.1-6.5-116.2-42.1-202.1-135-274.6-231.6-180.6-240.5-292.7-523.5-453.1-776.7-64.1-101.1-134.5-199.1-219.6-283.4-25.1-24.9-51.9-48.7-81.3-68.4,11.8-5.4,23.2-9.1,34.3-11,203,33.4,538.1,708.2,538.1,708.2h0ZM1914.1,73c-11.4-9.4-23.1-18.3-35.4-26.4,12.1-5.6,23.9-9.4,35.4-11.1,11.4,1.7,23.2,5.5,35.4,11.1-12.2,8.1-24,17-35.4,26.4Z"/>
      <path class="st2" d="M3552.3,867.3s160.2,321.5,299.7,456.8,312.1,98.3,312.1,98.3c-3.8.6-12.1-4.1-15.8-5.4-96.4-34.9-167.6-112-227.8-192.1-149.8-199.4-242.7-434.2-375.8-644.2-53.2-83.9-111.6-165.2-182.2-235.1-29.3-29-61.1-56.4-98.2-74.6-30.4-14.9-60.9-21.7-93.6-20.6h0c0-.1-583.6-.1-583.6-.1v.3c-26.5,1.4-51.7,8.1-76.8,20.5-37,18.2-68.8,45.6-98.2,74.6-70.6,69.9-128.9,151.2-182.2,235.1-133.1,210-226.1,444.7-375.8,644.2-60.2,80.1-131.4,157.2-227.8,192.1-3.7,1.3-12,6-15.8,5.4,0,0,172.6,37,312.1-98.3,139.5-135.3,299.7-456.8,299.7-456.8,0,0,277.9-559.6,446.3-587.4,9.2,1.5,18.7,4.6,28.4,9.1-24.4,16.2-46.5,36.1-67.4,56.7-70.6,69.9-129,151.2-182.2,235.1-133.1,210-226.1,444.7-375.8,644.2-60.2,80.1-131.4,157.2-227.8,192.1-3.7,1.3-12,6-15.8,5.4,0,0,172.6,37,312.1-98.3,139.5-135.3,299.7-456.8,299.7-456.8,0,0,179.5-361.6,337.5-517.9,11.2,11.1,22.5,23.2,33.8,36.1-54.1,60.2-100.9,126.9-144.3,195.3-133.1,210-226.1,444.7-375.8,644.2-60.2,80.1-131.4,157.2-227.8,192.1-3.6,1.3-12,6-15.8,5.4,0,0,172.6,37,312.1-98.3,139.5-135.3,299.7-456.8,299.7-456.8,0,0,106.6-214.6,227.7-384.7,121.2,170,227.7,384.7,227.7,384.7,0,0,160.2,321.5,299.7,456.8s312.1,98.3,312.1,98.3c-3.8.6-12.1-4.1-15.8-5.4-96.4-34.9-167.6-112-227.8-192.1-149.8-199.4-242.7-434.2-375.8-644.2-43.4-68.4-90.2-135.1-144.3-195.3,11.3-12.9,22.6-25,33.8-36.1,157.9,156.3,337.5,517.9,337.5,517.9,0,0,160.2,321.5,299.7,456.8,139.5,135.3,312.1,98.3,312.1,98.3-3.8.6-12.1-4.1-15.8-5.4-96.4-34.9-167.6-112-227.8-192.1-149.8-199.4-242.7-434.2-375.8-644.2-53.2-83.9-111.6-165.2-182.2-235.1-20.9-20.7-43-40.5-67.4-56.7,9.8-4.5,19.3-7.6,28.4-9.1,168.4,27.7,446.3,587.4,446.3,587.4h.2ZM2887.4,310.9c-9.4-7.8-19.1-15.2-29.3-21.9,10.1-4.6,19.9-7.8,29.3-9.2,9.5,1.5,19.3,4.6,29.3,9.2-10.1,6.7-19.9,14.1-29.3,21.9Z"/>
    </g>
  </g>
  <g>
    <path class="st1" d="M1911.3,2168.4c-12,0-23-2.2-33.1-6.5-10.1-4.4-18.9-10.3-26.2-17.8-7.4-7.5-13.2-16.4-17.4-26.7-4.2-10.3-6.3-21.2-6.3-32.9v-.5c0-11.7,2.1-22.6,6.2-32.8,4.1-10.2,9.9-19.1,17.4-26.8,7.5-7.7,16.3-13.8,26.6-18.2,10.3-4.4,21.6-6.6,34.1-6.6s14.3.6,20.4,1.9c6.1,1.2,11.8,3,16.9,5.2,5.1,2.2,9.9,4.9,14.2,8,4.4,3.1,8.5,6.5,12.4,10.2l-18.4,21.2c-6.5-6.1-13.5-11-20.8-14.7-7.3-3.7-15.6-5.6-25-5.6s-15,1.5-21.6,4.6c-6.6,3-12.3,7.2-17,12.4-4.7,5.2-8.5,11.3-11.2,18.3-2.7,7-4.1,14.5-4.1,22.4v.5c0,7.9,1.3,15.5,4,22.6,2.6,7.1,6.4,13.2,11.2,18.5,4.8,5.2,10.5,9.3,17.1,12.4,6.6,3,13.8,4.6,21.6,4.6s18.5-1.9,25.7-5.6c7.2-3.7,14.2-8.9,21.2-15.4l18.4,18.7c-4.2,4.5-8.6,8.5-13.2,12-4.6,3.5-9.5,6.5-14.8,9.1-5.3,2.6-11.1,4.5-17.4,5.8-6.3,1.3-13.3,2-20.9,2Z"/>
    <path class="st1" d="M2112.1,2001.1h26.6l71.8,164.4h-30.3l-16.6-39.4h-77.2l-16.8,39.4h-29.4l71.8-164.4ZM2153.2,2100.7l-28.2-65.3-28,65.3h56.2Z"/>
    <path class="st1" d="M2285.2,2002.3h73.2c18.8,0,33,4.8,42.7,14.5,7.3,7.3,11,16.3,11,27.1v.5c0,5-.7,9.4-2,13.2-1.3,3.8-3,7.2-5.1,10-2.1,2.9-4.6,5.4-7.5,7.6-2.9,2.2-5.8,4-8.7,5.6,4.8,1.7,9.2,3.7,13.2,5.9,4,2.3,7.4,4.9,10.3,8,2.9,3.1,5.1,6.8,6.6,11,1.6,4.2,2.3,9.1,2.3,14.7v.5c0,7.3-1.4,13.8-4.3,19.4-2.9,5.6-7,10.3-12.2,14-5.3,3.7-11.7,6.6-19.1,8.5-7.5,1.9-15.7,2.9-24.7,2.9h-75.6v-163.3ZM2383.4,2048.5c0-6.5-2.4-11.6-7.3-15.3-4.9-3.7-12-5.5-21.3-5.5h-41.3v43.4h39.2c9.3,0,16.8-1.8,22.4-5.5,5.6-3.7,8.4-9.2,8.4-16.7v-.5ZM2392.5,2117.3c0-7-2.8-12.4-8.3-16.2-5.5-3.8-14-5.7-25.3-5.7h-45.5v44.8h47.6c9.8,0,17.5-1.9,23.1-5.6,5.6-3.7,8.4-9.3,8.4-16.8v-.5Z"/>
    <path class="st1" d="M2578.2,2168.4c-12.6,0-24.1-2.2-34.5-6.6-10.4-4.4-19.4-10.5-26.8-18.1-7.5-7.6-13.3-16.5-17.5-26.7-4.2-10.2-6.3-21-6.3-32.5v-.5c0-11.5,2.1-22.4,6.3-32.5,4.2-10.2,10.1-19.1,17.7-26.8,7.6-7.7,16.6-13.8,27.1-18.3,10.4-4.5,21.9-6.8,34.5-6.8s24.1,2.2,34.5,6.6c10.4,4.4,19.4,10.5,26.8,18.1,7.5,7.6,13.3,16.5,17.5,26.7,4.2,10.2,6.3,21,6.3,32.5v.5c0,11.5-2.1,22.4-6.3,32.5-4.2,10.2-10.1,19.1-17.7,26.8-7.6,7.7-16.6,13.8-27.1,18.3-10.4,4.5-21.9,6.8-34.5,6.8ZM2578.6,2141.8c8.1,0,15.5-1.5,22.3-4.6,6.8-3,12.6-7.1,17.4-12.3,4.8-5.1,8.6-11.2,11.3-18.2,2.7-7,4.1-14.5,4.1-22.4v-.5c0-7.9-1.4-15.5-4.1-22.6-2.7-7.1-6.5-13.2-11.4-18.5-4.9-5.2-10.8-9.4-17.6-12.5-6.8-3.1-14.3-4.7-22.4-4.7s-15.5,1.5-22.3,4.6c-6.8,3-12.6,7.2-17.4,12.4-4.8,5.2-8.6,11.3-11.3,18.3-2.7,7-4.1,14.5-4.1,22.4v.5c0,7.9,1.4,15.4,4.1,22.4,2.7,7,6.5,13.2,11.4,18.5s10.8,9.5,17.6,12.5c6.8,3,14.3,4.6,22.4,4.6Z"/>
  </g>
</svg>